# xmcd CD database file
# Copyright (C) 1996 Ti Kan
#
# Track frame offsets:
# 	150
# 	17390
# 	37885
# 	61387
# 	80130
# 	104522
# 	123832
# 	141532
# 	164627
# 	182665
#
# Disc length: 2675 seconds
#
# Revision: 1
# Processed by: cddbd v1.4b41PL1 Copyright (c) Steve Scherf et al.
# Submitted via: DiscPlay 3.4.1
#
DISCID=860a710a
DTITLE=Robert Earl Keen - Picnic
DYEAR=1900
DGENRE=
TTITLE0=Undone
TTITLE1=Over The Watefall
TTITLE2=Levelland
TTITLE3=I Wonder Where My Baby Is Tonight
TTITLE4=Oh Rosie
TTITLE5=Runnin' With The Night
TTITLE6=The Coming Home Of The Son and Brother
TTITLE7=Shades Of Gray
TTITLE8=Fourth Of July
TTITLE9=Then Came Lo Mein
EXTD=
EXTT0=
EXTT1=
EXTT2=
EXTT3=
EXTT4=
EXTT5=
EXTT6=
EXTT7=
EXTT8=
EXTT9=(w/ Margo Timmons)
PLAYORDER=
